<?xml version="1.0" encoding="UTF-8"?>
<svg version="1.2" baseProfile="tiny-ps" id="bimi-logo" xmlns="http://www.w3.org/2000/svg" viewBox="0 0 512 512" width="512" height="512">
  <title>Cieslik</title>
  <rect width="512" height="512" fill="#2b4398"/>
  <g id="logoGroup">
    <path d="M95.45,293.35v19.28c-8.59,4.91-16.92,7.36-24.99,7.36-11.04,0-20.72-4.15-29.01-12.45-8.3-8.3-12.45-17.91-12.45-28.82,0-12.4,4.13-22.68,12.4-30.85,8.27-8.17,18.63-12.25,31.1-12.25,7.43,0,15.08,1.94,22.96,5.81v18.79c-8.46-5.42-16.47-8.14-24.02-8.14-6.98,0-13.08,2.46-18.31,7.36-5.23,4.91-7.85,10.66-7.85,17.24,0,7.43,2.45,13.68,7.36,18.75,4.91,5.07,10.91,7.6,18.02,7.6s15.5-3.23,24.8-9.69Z" fill="#f9f9fa"/>
    <path d="M103.76,211.58c0-3.49,1.29-6.51,3.88-9.06,2.58-2.55,5.65-3.83,9.2-3.83s6.51,1.28,9.06,3.83c2.55,2.55,3.83,5.57,3.83,9.06s-1.28,6.59-3.83,9.11c-2.55,2.52-5.57,3.78-9.06,3.78s-6.62-1.26-9.2-3.78c-2.58-2.52-3.88-5.55-3.88-9.11ZM108.51,237.84h16.66v79.92h-16.66v-79.92Z" fill="#f9f9fa"/>
    <path d="M225.22,281.04h-68.2c1.49,8.2,4.86,14.19,10.12,17.97,5.26,3.78,11,5.67,17.2,5.67,9.56,0,17.57-3.97,24.02-11.92l12.3,9.3c-9.24,11.95-21.6,17.92-37.1,17.92-11.88,0-21.83-4.07-29.84-12.21-8.01-8.14-12.01-18.24-12.01-30.32,0-11.3,4.05-21.1,12.16-29.4,8.1-8.3,18-12.45,29.69-12.45s21.34,4.21,29.55,12.64c8.2,8.43,12.24,19.36,12.11,32.79ZM158.77,267.58h48.82c-5.42-10.98-13.43-16.47-24.02-16.47-11.56,0-19.83,5.49-24.8,16.47Z" fill="#f9f9fa"/>
    <path d="M287.88,247.33l-11.24,9.88c-2.91-2.07-5.43-3.63-7.56-4.7-2.13-1.07-4.65-1.6-7.56-1.6-6.85,0-10.27,2.52-10.27,7.56,0,3.62,4.34,7.13,13.03,10.54,8.69,3.41,14.93,7.14,18.75,11.21,3.81,4.06,5.72,8.97,5.72,14.71,0,6.71-2.75,12.57-8.23,17.56-5.49,5-11.95,7.5-19.38,7.5-11.3,0-20.57-5.23-27.8-15.69l13.27-6.39c4.65,4.52,9.49,6.78,14.53,6.78,3.49,0,6.54-.95,9.15-2.86,2.62-1.9,3.92-4.12,3.92-6.64,0-4.46-4.59-8.46-13.76-12.02-9.17-3.56-15.52-7.16-19.04-10.81-3.52-3.65-5.28-8.15-5.28-13.51,0-6.65,2.5-12.18,7.51-16.6,5-4.42,11.29-6.63,18.84-6.63s16.02,3.91,25.38,11.72Z" fill="#f9f9fa"/>
    <path d="M303.07,192.01h16.86v125.74h-16.86v-125.74Z" fill="#f9f9fa"/>
    <path d="M336.18,211.58c0-3.49,1.29-6.51,3.88-9.06,2.58-2.55,5.65-3.83,9.2-3.83s6.51,1.28,9.06,3.83c2.55,2.55,3.83,5.57,3.83,9.06s-1.28,6.59-3.83,9.11c-2.55,2.52-5.57,3.78-9.06,3.78s-6.62-1.26-9.2-3.78c-2.58-2.52-3.88-5.55-3.88-9.11ZM340.93,237.84h16.66v79.92h-16.66v-79.92Z" fill="#f9f9fa"/>
    <path d="M376.85,192.01h16.86v80.89l33.02-35.07h21.81l-34.48,36.91,34.86,43.01h-20.86l-34.36-42.24v42.24h-16.86v-125.74Z" fill="#f9f9fa"/>
    <path d="M456.85,306.42c0-3.55,1.27-6.62,3.83-9.2,2.55-2.58,5.63-3.88,9.25-3.88s6.62,1.29,9.2,3.88c2.58,2.58,3.88,5.65,3.88,9.2s-1.28,6.7-3.83,9.25c-2.55,2.55-5.64,3.83-9.25,3.83s-6.7-1.26-9.25-3.78c-2.55-2.52-3.83-5.62-3.83-9.3Z" fill="#f9f9fa"/>
  </g>
</svg>
